# xmcd
#
# Track frame offsets:
#	150
#	18818
#	37229
#	61549
#	78504
#	92152
#	112160
#	133986
#	153970
#	176609
#	196821
#	216940
#	239217
#	254640
#	285386
#
# Disc length: 4055 seconds
#
# Revision: 0
# Processed by: cddbd v1.5.2PL0 Copyright (c) Steve Scherf et al.
# Submitted via: EasyCDDAExtractor 15.3.0.1
#
DISCID=da0fd50f
DTITLE=Various Artist - 2012 Steppin Music Vol. 17
DYEAR=2012
DGENRE=R&B
TTITLE0=Lalah Hathaway - We Were Meant To Be
TTITLE1=Dorian Wright ft. Boujou - Cath My Fall
TTITLE2=Collective Sound Members - Journey From A Dream
TTITLE3=Cee Lo Green - I'll Be Around
TTITLE4=Lizz Wright - I'm Confessing
TTITLE5=Sharon Robinson - Invisible Tattoo
TTITLE6=Jackson 5  - Maybe Tomorrow
TTITLE7=Mystikal - That Woman
TTITLE8=Mr. Diggs - U Can't Imagine
TTITLE9=Phyllis Hyman - You Just Don't Know
TTITLE10=NYR - Dance 4 Me
TTITLE11=Maze ft. Frankie Beverly - We Need Love To Live
TTITLE12=G Spliff - Viejo Abasto
TTITLE13=Leggos Beast - Noodle Soup
TTITLE14=Anthony David - Keep You Around
EXTD=
EXTT0=
EXTT1=
EXTT2=
EXTT3=
EXTT4=
EXTT5=
EXTT6=
EXTT7=
EXTT8=
EXTT9=
EXTT10=
EXTT11=
EXTT12=
EXTT13=
EXTT14=
PLAYORDER=
